# xmcd
#
# Track frame offsets:
#	150
#	12344
#	23899
#	35239
#	46276
#	59889
#	73436
#	85169
#	95813
#	106962
#
# Disc length: 1598 seconds
#
# Revision: 0
# Processed by: cddbd v1.5.1PL0 Copyright (c) Steve Scherf et al.
# Submitted via: dBpowerAMP V4.0
#
DISCID=93063c0a
DTITLE=Los Humildes - Los Humildes
DYEAR=1900
DGENRE=
TTITLE0=Ensename a  Cantar
TTITLE1=Esta  Noche voy a verla
TTITLE2=Vengo a Pedir tu mano
TTITLE3=Borrare tus Besos
TTITLE4=Quedo pendiente una boda
TTITLE5=Ni  el dinero ni nada
TTITLE6=Que bonito par de ojitos 
TTITLE7=Dejare la ciudad
TTITLE8=Tu delirio
TTITLE9=Olvidarte nunca
EXTD=Los Humildes
EXTT0=
EXTT1=
EXTT2=
EXTT3=
EXTT4=
EXTT5=
EXTT6=
EXTT7=
EXTT8=
EXTT9=
PLAYORDER=
